<?xml version="1.0" encoding="UTF-8"?>
<svg xmlns="http://www.w3.org/2000/svg" xmlns:xlink="http://www.w3.org/1999/xlink" width="854" height="480" viewBox="0 0 854 480">
<defs>
<g>
<g id="glyph-0-0">
<path d="M 2.054688 0 L 0.261719 0 L 0.261719 -0.164062 C 0.304688 -0.167969 0.375 -0.175781 0.46875 -0.1875 C 0.566406 -0.199219 0.628906 -0.210938 0.664062 -0.222656 C 0.707031 -0.234375 0.742188 -0.261719 0.765625 -0.296875 C 0.789062 -0.328125 0.804688 -0.378906 0.804688 -0.4375 L 0.804688 -1.8125 L 0.253906 -1.8125 L 0.253906 -2.019531 L 0.375 -2.019531 C 0.5 -2.019531 0.609375 -2.035156 0.699219 -2.0625 C 0.792969 -2.089844 0.867188 -2.121094 0.929688 -2.160156 C 0.992188 -2.203125 1.042969 -2.242188 1.082031 -2.285156 C 1.121094 -2.332031 1.152344 -2.367188 1.175781 -2.402344 L 1.558594 -2.402344 C 1.554688 -2.308594 1.550781 -2.199219 1.546875 -2.074219 C 1.539062 -1.945312 1.539062 -1.832031 1.539062 -1.734375 L 1.539062 -0.460938 C 1.539062 -0.410156 1.550781 -0.363281 1.570312 -0.328125 C 1.59375 -0.289062 1.625 -0.257812 1.667969 -0.238281 C 1.707031 -0.222656 1.769531 -0.207031 1.859375 -0.191406 C 1.945312 -0.175781 2.011719 -0.167969 2.054688 -0.164062 Z "/>
</g>
</g>
</defs>
<g fill="rgb(61.176471%, 86.27451%, 92.156863%)" fill-opacity="1">
<use xlink:href="#glyph-0-0" x="30" y="24.074219"/>
</g>
</svg>
