<?xml version="1.0" encoding="UTF-8"?>
<svg xmlns="http://www.w3.org/2000/svg" xmlns:xlink="http://www.w3.org/1999/xlink" width="854" height="480" viewBox="0 0 854 480">
<defs>
<g>
<g id="glyph-0-0">
<path d="M 4.105469 -0.03125 L 3.40625 -0.03125 L 3.40625 1.203125 L 2.3125 1.203125 L 2.3125 -0.03125 L 0.160156 -0.03125 L 0.160156 -0.632812 L 2.496094 -3.589844 L 3.40625 -3.589844 L 3.40625 -0.71875 L 4.105469 -0.71875 L 4.105469 -0.03125 M 2.3125 -0.71875 L 2.3125 -2.8125 L 0.660156 -0.71875 Z "/>
</g>
<g id="glyph-0-1">
<path d="M 1.738281 -0.539062 C 1.738281 -0.367188 1.675781 -0.21875 1.546875 -0.09375 C 1.421875 0.03125 1.269531 0.09375 1.097656 0.09375 C 0.921875 0.09375 0.769531 0.03125 0.644531 -0.09375 C 0.515625 -0.21875 0.453125 -0.367188 0.453125 -0.539062 C 0.453125 -0.714844 0.515625 -0.863281 0.644531 -0.992188 C 0.769531 -1.117188 0.921875 -1.179688 1.097656 -1.179688 C 1.269531 -1.179688 1.421875 -1.117188 1.546875 -0.988281 C 1.675781 -0.863281 1.738281 -0.710938 1.738281 -0.539062 Z "/>
</g>
</g>
</defs>
<g fill="rgb(61.176471%, 86.27451%, 92.156863%)" fill-opacity="1">
<use xlink:href="#glyph-0-0" x="30" y="26.112305"/>
<use xlink:href="#glyph-0-1" x="34" y="26.112305"/>
</g>
</svg>
